<mxfile host="app.diagrams.net" agent="Mozilla/5.0 (X11; Linux x86_64) AppleWebKit/537.36 (KHTML, like Gecko) Chrome/138.0.0.0 Safari/537.36" version="28.0.7">
  <diagram name="Página-1" id="8GjEj3K-h04XSNouCPRW">
    <mxGraphModel dx="1360" dy="799" grid="1" gridSize="10" guides="1" tooltips="1" connect="1" arrows="1" fold="1" page="1" pageScale="1" pageWidth="1169" pageHeight="827" math="0" shadow="0">
      <root>
        <mxCell id="0" />
        <mxCell id="1" parent="0" />
        <mxCell id="ecVGvUxfVP7xilmk1gJO-2" value="CITAS_MÉDICAS" style="shape=table;startSize=30;container=1;collapsible=1;childLayout=tableLayout;fixedRows=1;rowLines=0;fontStyle=1;align=center;resizeLast=1;html=1;labelBackgroundColor=none;fillColor=#B1DDF0;strokeColor=#BAC8D3;fontColor=#182E3E;" vertex="1" parent="1">
          <mxGeometry x="40" y="20" width="180" height="270" as="geometry" />
        </mxCell>
        <mxCell id="ecVGvUxfVP7xilmk1gJO-3" value="" style="shape=tableRow;horizontal=0;startSize=0;swimlaneHead=0;swimlaneBody=0;fillColor=none;collapsible=0;dropTarget=0;points=[[0,0.5],[1,0.5]];portConstraint=eastwest;top=0;left=0;right=0;bottom=1;labelBackgroundColor=none;strokeColor=#BAC8D3;fontColor=#182E3E;" vertex="1" parent="ecVGvUxfVP7xilmk1gJO-2">
          <mxGeometry y="30" width="180" height="30" as="geometry" />
        </mxCell>
        <mxCell id="ecVGvUxfVP7xilmk1gJO-4" value="PK" style="shape=partialRectangle;connectable=0;fillColor=none;top=0;left=0;bottom=0;right=0;fontStyle=1;overflow=hidden;whiteSpace=wrap;html=1;labelBackgroundColor=none;strokeColor=#BAC8D3;fontColor=#182E3E;" vertex="1" parent="ecVGvUxfVP7xilmk1gJO-3">
          <mxGeometry width="30" height="30" as="geometry">
            <mxRectangle width="30" height="30" as="alternateBounds" />
          </mxGeometry>
        </mxCell>
        <mxCell id="ecVGvUxfVP7xilmk1gJO-5" value="IDcita_médica" style="shape=partialRectangle;connectable=0;fillColor=none;top=0;left=0;bottom=0;right=0;align=left;spacingLeft=6;fontStyle=5;overflow=hidden;whiteSpace=wrap;html=1;labelBackgroundColor=none;strokeColor=#BAC8D3;fontColor=#182E3E;" vertex="1" parent="ecVGvUxfVP7xilmk1gJO-3">
          <mxGeometry x="30" width="150" height="30" as="geometry">
            <mxRectangle width="150" height="30" as="alternateBounds" />
          </mxGeometry>
        </mxCell>
        <mxCell id="ecVGvUxfVP7xilmk1gJO-6" value="" style="shape=tableRow;horizontal=0;startSize=0;swimlaneHead=0;swimlaneBody=0;fillColor=none;collapsible=0;dropTarget=0;points=[[0,0.5],[1,0.5]];portConstraint=eastwest;top=0;left=0;right=0;bottom=0;labelBackgroundColor=none;strokeColor=#BAC8D3;fontColor=#182E3E;" vertex="1" parent="ecVGvUxfVP7xilmk1gJO-2">
          <mxGeometry y="60" width="180" height="30" as="geometry" />
        </mxCell>
        <mxCell id="ecVGvUxfVP7xilmk1gJO-7" value="" style="shape=partialRectangle;connectable=0;fillColor=none;top=0;left=0;bottom=0;right=0;editable=1;overflow=hidden;whiteSpace=wrap;html=1;labelBackgroundColor=none;strokeColor=#BAC8D3;fontColor=#182E3E;" vertex="1" parent="ecVGvUxfVP7xilmk1gJO-6">
          <mxGeometry width="30" height="30" as="geometry">
            <mxRectangle width="30" height="30" as="alternateBounds" />
          </mxGeometry>
        </mxCell>
        <mxCell id="ecVGvUxfVP7xilmk1gJO-8" value="Fecha" style="shape=partialRectangle;connectable=0;fillColor=none;top=0;left=0;bottom=0;right=0;align=left;spacingLeft=6;overflow=hidden;whiteSpace=wrap;html=1;labelBackgroundColor=none;strokeColor=#BAC8D3;fontColor=#182E3E;" vertex="1" parent="ecVGvUxfVP7xilmk1gJO-6">
          <mxGeometry x="30" width="150" height="30" as="geometry">
            <mxRectangle width="150" height="30" as="alternateBounds" />
          </mxGeometry>
        </mxCell>
        <mxCell id="ecVGvUxfVP7xilmk1gJO-9" value="" style="shape=tableRow;horizontal=0;startSize=0;swimlaneHead=0;swimlaneBody=0;fillColor=none;collapsible=0;dropTarget=0;points=[[0,0.5],[1,0.5]];portConstraint=eastwest;top=0;left=0;right=0;bottom=0;labelBackgroundColor=none;strokeColor=#BAC8D3;fontColor=#182E3E;" vertex="1" parent="ecVGvUxfVP7xilmk1gJO-2">
          <mxGeometry y="90" width="180" height="30" as="geometry" />
        </mxCell>
        <mxCell id="ecVGvUxfVP7xilmk1gJO-10" value="" style="shape=partialRectangle;connectable=0;fillColor=none;top=0;left=0;bottom=0;right=0;editable=1;overflow=hidden;whiteSpace=wrap;html=1;labelBackgroundColor=none;strokeColor=#BAC8D3;fontColor=#182E3E;" vertex="1" parent="ecVGvUxfVP7xilmk1gJO-9">
          <mxGeometry width="30" height="30" as="geometry">
            <mxRectangle width="30" height="30" as="alternateBounds" />
          </mxGeometry>
        </mxCell>
        <mxCell id="ecVGvUxfVP7xilmk1gJO-11" value="Hora" style="shape=partialRectangle;connectable=0;fillColor=none;top=0;left=0;bottom=0;right=0;align=left;spacingLeft=6;overflow=hidden;whiteSpace=wrap;html=1;labelBackgroundColor=none;strokeColor=#BAC8D3;fontColor=#182E3E;" vertex="1" parent="ecVGvUxfVP7xilmk1gJO-9">
          <mxGeometry x="30" width="150" height="30" as="geometry">
            <mxRectangle width="150" height="30" as="alternateBounds" />
          </mxGeometry>
        </mxCell>
        <mxCell id="ecVGvUxfVP7xilmk1gJO-12" value="" style="shape=tableRow;horizontal=0;startSize=0;swimlaneHead=0;swimlaneBody=0;fillColor=none;collapsible=0;dropTarget=0;points=[[0,0.5],[1,0.5]];portConstraint=eastwest;top=0;left=0;right=0;bottom=0;labelBackgroundColor=none;strokeColor=#BAC8D3;fontColor=#182E3E;" vertex="1" parent="ecVGvUxfVP7xilmk1gJO-2">
          <mxGeometry y="120" width="180" height="30" as="geometry" />
        </mxCell>
        <mxCell id="ecVGvUxfVP7xilmk1gJO-13" value="" style="shape=partialRectangle;connectable=0;fillColor=none;top=0;left=0;bottom=0;right=0;editable=1;overflow=hidden;whiteSpace=wrap;html=1;labelBackgroundColor=none;strokeColor=#BAC8D3;fontColor=#182E3E;" vertex="1" parent="ecVGvUxfVP7xilmk1gJO-12">
          <mxGeometry width="30" height="30" as="geometry">
            <mxRectangle width="30" height="30" as="alternateBounds" />
          </mxGeometry>
        </mxCell>
        <mxCell id="ecVGvUxfVP7xilmk1gJO-14" value="Motivo" style="shape=partialRectangle;connectable=0;fillColor=none;top=0;left=0;bottom=0;right=0;align=left;spacingLeft=6;overflow=hidden;whiteSpace=wrap;html=1;labelBackgroundColor=none;strokeColor=#BAC8D3;fontColor=#182E3E;" vertex="1" parent="ecVGvUxfVP7xilmk1gJO-12">
          <mxGeometry x="30" width="150" height="30" as="geometry">
            <mxRectangle width="150" height="30" as="alternateBounds" />
          </mxGeometry>
        </mxCell>
        <mxCell id="ecVGvUxfVP7xilmk1gJO-30" value="" style="shape=tableRow;horizontal=0;startSize=0;swimlaneHead=0;swimlaneBody=0;fillColor=none;collapsible=0;dropTarget=0;points=[[0,0.5],[1,0.5]];portConstraint=eastwest;top=0;left=0;right=0;bottom=0;labelBackgroundColor=none;strokeColor=#BAC8D3;fontColor=#182E3E;" vertex="1" parent="ecVGvUxfVP7xilmk1gJO-2">
          <mxGeometry y="150" width="180" height="30" as="geometry" />
        </mxCell>
        <mxCell id="ecVGvUxfVP7xilmk1gJO-31" value="" style="shape=partialRectangle;connectable=0;fillColor=none;top=0;left=0;bottom=0;right=0;editable=1;overflow=hidden;whiteSpace=wrap;html=1;labelBackgroundColor=none;strokeColor=#BAC8D3;fontColor=#182E3E;" vertex="1" parent="ecVGvUxfVP7xilmk1gJO-30">
          <mxGeometry width="30" height="30" as="geometry">
            <mxRectangle width="30" height="30" as="alternateBounds" />
          </mxGeometry>
        </mxCell>
        <mxCell id="ecVGvUxfVP7xilmk1gJO-32" value="IDestado" style="shape=partialRectangle;connectable=0;fillColor=none;top=0;left=0;bottom=0;right=0;align=left;spacingLeft=6;overflow=hidden;whiteSpace=wrap;html=1;labelBackgroundColor=none;strokeColor=#BAC8D3;fontColor=#182E3E;" vertex="1" parent="ecVGvUxfVP7xilmk1gJO-30">
          <mxGeometry x="30" width="150" height="30" as="geometry">
            <mxRectangle width="150" height="30" as="alternateBounds" />
          </mxGeometry>
        </mxCell>
        <mxCell id="ecVGvUxfVP7xilmk1gJO-21" value="" style="shape=tableRow;horizontal=0;startSize=0;swimlaneHead=0;swimlaneBody=0;fillColor=none;collapsible=0;dropTarget=0;points=[[0,0.5],[1,0.5]];portConstraint=eastwest;top=0;left=0;right=0;bottom=0;labelBackgroundColor=none;strokeColor=#BAC8D3;fontColor=#182E3E;" vertex="1" parent="ecVGvUxfVP7xilmk1gJO-2">
          <mxGeometry y="180" width="180" height="30" as="geometry" />
        </mxCell>
        <mxCell id="ecVGvUxfVP7xilmk1gJO-22" value="" style="shape=partialRectangle;connectable=0;fillColor=none;top=0;left=0;bottom=0;right=0;editable=1;overflow=hidden;whiteSpace=wrap;html=1;labelBackgroundColor=none;strokeColor=#BAC8D3;fontColor=#182E3E;" vertex="1" parent="ecVGvUxfVP7xilmk1gJO-21">
          <mxGeometry width="30" height="30" as="geometry">
            <mxRectangle width="30" height="30" as="alternateBounds" />
          </mxGeometry>
        </mxCell>
        <mxCell id="ecVGvUxfVP7xilmk1gJO-23" value="IDmédico" style="shape=partialRectangle;connectable=0;fillColor=none;top=0;left=0;bottom=0;right=0;align=left;spacingLeft=6;overflow=hidden;whiteSpace=wrap;html=1;labelBackgroundColor=none;strokeColor=#BAC8D3;fontColor=#182E3E;" vertex="1" parent="ecVGvUxfVP7xilmk1gJO-21">
          <mxGeometry x="30" width="150" height="30" as="geometry">
            <mxRectangle width="150" height="30" as="alternateBounds" />
          </mxGeometry>
        </mxCell>
        <mxCell id="ecVGvUxfVP7xilmk1gJO-27" value="" style="shape=tableRow;horizontal=0;startSize=0;swimlaneHead=0;swimlaneBody=0;fillColor=none;collapsible=0;dropTarget=0;points=[[0,0.5],[1,0.5]];portConstraint=eastwest;top=0;left=0;right=0;bottom=0;labelBackgroundColor=none;strokeColor=#BAC8D3;fontColor=#182E3E;" vertex="1" parent="ecVGvUxfVP7xilmk1gJO-2">
          <mxGeometry y="210" width="180" height="30" as="geometry" />
        </mxCell>
        <mxCell id="ecVGvUxfVP7xilmk1gJO-28" value="" style="shape=partialRectangle;connectable=0;fillColor=none;top=0;left=0;bottom=0;right=0;editable=1;overflow=hidden;whiteSpace=wrap;html=1;labelBackgroundColor=none;strokeColor=#BAC8D3;fontColor=#182E3E;" vertex="1" parent="ecVGvUxfVP7xilmk1gJO-27">
          <mxGeometry width="30" height="30" as="geometry">
            <mxRectangle width="30" height="30" as="alternateBounds" />
          </mxGeometry>
        </mxCell>
        <mxCell id="ecVGvUxfVP7xilmk1gJO-29" value="IDpaciente" style="shape=partialRectangle;connectable=0;fillColor=none;top=0;left=0;bottom=0;right=0;align=left;spacingLeft=6;overflow=hidden;whiteSpace=wrap;html=1;labelBackgroundColor=none;strokeColor=#BAC8D3;fontColor=#182E3E;" vertex="1" parent="ecVGvUxfVP7xilmk1gJO-27">
          <mxGeometry x="30" width="150" height="30" as="geometry">
            <mxRectangle width="150" height="30" as="alternateBounds" />
          </mxGeometry>
        </mxCell>
        <mxCell id="ecVGvUxfVP7xilmk1gJO-24" value="" style="shape=tableRow;horizontal=0;startSize=0;swimlaneHead=0;swimlaneBody=0;fillColor=none;collapsible=0;dropTarget=0;points=[[0,0.5],[1,0.5]];portConstraint=eastwest;top=0;left=0;right=0;bottom=0;labelBackgroundColor=none;strokeColor=#BAC8D3;fontColor=#182E3E;" vertex="1" parent="ecVGvUxfVP7xilmk1gJO-2">
          <mxGeometry y="240" width="180" height="30" as="geometry" />
        </mxCell>
        <mxCell id="ecVGvUxfVP7xilmk1gJO-25" value="" style="shape=partialRectangle;connectable=0;fillColor=none;top=0;left=0;bottom=0;right=0;editable=1;overflow=hidden;whiteSpace=wrap;html=1;labelBackgroundColor=none;strokeColor=#BAC8D3;fontColor=#182E3E;" vertex="1" parent="ecVGvUxfVP7xilmk1gJO-24">
          <mxGeometry width="30" height="30" as="geometry">
            <mxRectangle width="30" height="30" as="alternateBounds" />
          </mxGeometry>
        </mxCell>
        <mxCell id="ecVGvUxfVP7xilmk1gJO-26" value="IDdiagnóstico" style="shape=partialRectangle;connectable=0;fillColor=none;top=0;left=0;bottom=0;right=0;align=left;spacingLeft=6;overflow=hidden;whiteSpace=wrap;html=1;labelBackgroundColor=none;strokeColor=#BAC8D3;fontColor=#182E3E;" vertex="1" parent="ecVGvUxfVP7xilmk1gJO-24">
          <mxGeometry x="30" width="150" height="30" as="geometry">
            <mxRectangle width="150" height="30" as="alternateBounds" />
          </mxGeometry>
        </mxCell>
        <mxCell id="ecVGvUxfVP7xilmk1gJO-33" value="ESTADO" style="shape=table;startSize=30;container=1;collapsible=1;childLayout=tableLayout;fixedRows=1;rowLines=0;fontStyle=1;align=center;resizeLast=1;html=1;strokeColor=#BAC8D3;fontColor=#182E3E;fillColor=#B1DDF0;" vertex="1" parent="1">
          <mxGeometry x="280" y="20" width="180" height="90" as="geometry">
            <mxRectangle x="750" y="260" width="90" height="30" as="alternateBounds" />
          </mxGeometry>
        </mxCell>
        <mxCell id="ecVGvUxfVP7xilmk1gJO-34" value="" style="shape=tableRow;horizontal=0;startSize=0;swimlaneHead=0;swimlaneBody=0;fillColor=none;collapsible=0;dropTarget=0;points=[[0,0.5],[1,0.5]];portConstraint=eastwest;top=0;left=0;right=0;bottom=1;strokeColor=#BAC8D3;fontColor=#182E3E;" vertex="1" parent="ecVGvUxfVP7xilmk1gJO-33">
          <mxGeometry y="30" width="180" height="30" as="geometry" />
        </mxCell>
        <mxCell id="ecVGvUxfVP7xilmk1gJO-35" value="PK" style="shape=partialRectangle;connectable=0;fillColor=none;top=0;left=0;bottom=0;right=0;fontStyle=1;overflow=hidden;whiteSpace=wrap;html=1;strokeColor=#BAC8D3;fontColor=#182E3E;" vertex="1" parent="ecVGvUxfVP7xilmk1gJO-34">
          <mxGeometry width="30" height="30" as="geometry">
            <mxRectangle width="30" height="30" as="alternateBounds" />
          </mxGeometry>
        </mxCell>
        <mxCell id="ecVGvUxfVP7xilmk1gJO-36" value="IDestado" style="shape=partialRectangle;connectable=0;fillColor=none;top=0;left=0;bottom=0;right=0;align=left;spacingLeft=6;fontStyle=5;overflow=hidden;whiteSpace=wrap;html=1;strokeColor=#BAC8D3;fontColor=#182E3E;" vertex="1" parent="ecVGvUxfVP7xilmk1gJO-34">
          <mxGeometry x="30" width="150" height="30" as="geometry">
            <mxRectangle width="150" height="30" as="alternateBounds" />
          </mxGeometry>
        </mxCell>
        <mxCell id="ecVGvUxfVP7xilmk1gJO-37" value="" style="shape=tableRow;horizontal=0;startSize=0;swimlaneHead=0;swimlaneBody=0;fillColor=none;collapsible=0;dropTarget=0;points=[[0,0.5],[1,0.5]];portConstraint=eastwest;top=0;left=0;right=0;bottom=0;strokeColor=#BAC8D3;fontColor=#182E3E;" vertex="1" parent="ecVGvUxfVP7xilmk1gJO-33">
          <mxGeometry y="60" width="180" height="30" as="geometry" />
        </mxCell>
        <mxCell id="ecVGvUxfVP7xilmk1gJO-38" value="" style="shape=partialRectangle;connectable=0;fillColor=none;top=0;left=0;bottom=0;right=0;editable=1;overflow=hidden;whiteSpace=wrap;html=1;strokeColor=#BAC8D3;fontColor=#182E3E;" vertex="1" parent="ecVGvUxfVP7xilmk1gJO-37">
          <mxGeometry width="30" height="30" as="geometry">
            <mxRectangle width="30" height="30" as="alternateBounds" />
          </mxGeometry>
        </mxCell>
        <mxCell id="ecVGvUxfVP7xilmk1gJO-39" value="Estado" style="shape=partialRectangle;connectable=0;fillColor=none;top=0;left=0;bottom=0;right=0;align=left;spacingLeft=6;overflow=hidden;whiteSpace=wrap;html=1;strokeColor=#BAC8D3;fontColor=#182E3E;" vertex="1" parent="ecVGvUxfVP7xilmk1gJO-37">
          <mxGeometry x="30" width="150" height="30" as="geometry">
            <mxRectangle width="150" height="30" as="alternateBounds" />
          </mxGeometry>
        </mxCell>
        <mxCell id="ecVGvUxfVP7xilmk1gJO-46" value="" style="edgeStyle=entityRelationEdgeStyle;fontSize=12;html=1;endArrow=ERmandOne;startArrow=ERmandOne;rounded=0;strokeColor=#001DBC;fontColor=#FFFFFF;entryX=0;entryY=0.5;entryDx=0;entryDy=0;exitX=1;exitY=0.5;exitDx=0;exitDy=0;fillColor=#0050ef;" edge="1" parent="1" source="ecVGvUxfVP7xilmk1gJO-30" target="ecVGvUxfVP7xilmk1gJO-34">
          <mxGeometry width="100" height="100" relative="1" as="geometry">
            <mxPoint x="560" y="140" as="sourcePoint" />
            <mxPoint x="660" y="40" as="targetPoint" />
          </mxGeometry>
        </mxCell>
        <mxCell id="ecVGvUxfVP7xilmk1gJO-47" value="PACIENTES" style="shape=table;startSize=30;container=1;collapsible=1;childLayout=tableLayout;fixedRows=1;rowLines=0;fontStyle=1;align=center;resizeLast=1;html=1;strokeColor=#BAC8D3;fontColor=#182E3E;fillColor=#B1DDF0;" vertex="1" parent="1">
          <mxGeometry x="360" y="365" width="180" height="360" as="geometry" />
        </mxCell>
        <mxCell id="ecVGvUxfVP7xilmk1gJO-48" value="" style="shape=tableRow;horizontal=0;startSize=0;swimlaneHead=0;swimlaneBody=0;fillColor=none;collapsible=0;dropTarget=0;points=[[0,0.5],[1,0.5]];portConstraint=eastwest;top=0;left=0;right=0;bottom=1;strokeColor=#BAC8D3;fontColor=#182E3E;" vertex="1" parent="ecVGvUxfVP7xilmk1gJO-47">
          <mxGeometry y="30" width="180" height="30" as="geometry" />
        </mxCell>
        <mxCell id="ecVGvUxfVP7xilmk1gJO-49" value="PK" style="shape=partialRectangle;connectable=0;fillColor=none;top=0;left=0;bottom=0;right=0;fontStyle=1;overflow=hidden;whiteSpace=wrap;html=1;strokeColor=#BAC8D3;fontColor=#182E3E;" vertex="1" parent="ecVGvUxfVP7xilmk1gJO-48">
          <mxGeometry width="30" height="30" as="geometry">
            <mxRectangle width="30" height="30" as="alternateBounds" />
          </mxGeometry>
        </mxCell>
        <mxCell id="ecVGvUxfVP7xilmk1gJO-50" value="IDpaciente" style="shape=partialRectangle;connectable=0;fillColor=none;top=0;left=0;bottom=0;right=0;align=left;spacingLeft=6;fontStyle=5;overflow=hidden;whiteSpace=wrap;html=1;strokeColor=#BAC8D3;fontColor=#182E3E;" vertex="1" parent="ecVGvUxfVP7xilmk1gJO-48">
          <mxGeometry x="30" width="150" height="30" as="geometry">
            <mxRectangle width="150" height="30" as="alternateBounds" />
          </mxGeometry>
        </mxCell>
        <mxCell id="ecVGvUxfVP7xilmk1gJO-51" value="" style="shape=tableRow;horizontal=0;startSize=0;swimlaneHead=0;swimlaneBody=0;fillColor=none;collapsible=0;dropTarget=0;points=[[0,0.5],[1,0.5]];portConstraint=eastwest;top=0;left=0;right=0;bottom=0;strokeColor=#BAC8D3;fontColor=#182E3E;" vertex="1" parent="ecVGvUxfVP7xilmk1gJO-47">
          <mxGeometry y="60" width="180" height="30" as="geometry" />
        </mxCell>
        <mxCell id="ecVGvUxfVP7xilmk1gJO-52" value="" style="shape=partialRectangle;connectable=0;fillColor=none;top=0;left=0;bottom=0;right=0;editable=1;overflow=hidden;whiteSpace=wrap;html=1;strokeColor=#BAC8D3;fontColor=#182E3E;" vertex="1" parent="ecVGvUxfVP7xilmk1gJO-51">
          <mxGeometry width="30" height="30" as="geometry">
            <mxRectangle width="30" height="30" as="alternateBounds" />
          </mxGeometry>
        </mxCell>
        <mxCell id="ecVGvUxfVP7xilmk1gJO-53" value="Primer_nombre" style="shape=partialRectangle;connectable=0;fillColor=none;top=0;left=0;bottom=0;right=0;align=left;spacingLeft=6;overflow=hidden;whiteSpace=wrap;html=1;strokeColor=#BAC8D3;fontColor=#182E3E;" vertex="1" parent="ecVGvUxfVP7xilmk1gJO-51">
          <mxGeometry x="30" width="150" height="30" as="geometry">
            <mxRectangle width="150" height="30" as="alternateBounds" />
          </mxGeometry>
        </mxCell>
        <mxCell id="ecVGvUxfVP7xilmk1gJO-54" value="" style="shape=tableRow;horizontal=0;startSize=0;swimlaneHead=0;swimlaneBody=0;fillColor=none;collapsible=0;dropTarget=0;points=[[0,0.5],[1,0.5]];portConstraint=eastwest;top=0;left=0;right=0;bottom=0;strokeColor=#BAC8D3;fontColor=#182E3E;" vertex="1" parent="ecVGvUxfVP7xilmk1gJO-47">
          <mxGeometry y="90" width="180" height="30" as="geometry" />
        </mxCell>
        <mxCell id="ecVGvUxfVP7xilmk1gJO-55" value="" style="shape=partialRectangle;connectable=0;fillColor=none;top=0;left=0;bottom=0;right=0;editable=1;overflow=hidden;whiteSpace=wrap;html=1;strokeColor=#BAC8D3;fontColor=#182E3E;" vertex="1" parent="ecVGvUxfVP7xilmk1gJO-54">
          <mxGeometry width="30" height="30" as="geometry">
            <mxRectangle width="30" height="30" as="alternateBounds" />
          </mxGeometry>
        </mxCell>
        <mxCell id="ecVGvUxfVP7xilmk1gJO-56" value="Segundo_nombre" style="shape=partialRectangle;connectable=0;fillColor=none;top=0;left=0;bottom=0;right=0;align=left;spacingLeft=6;overflow=hidden;whiteSpace=wrap;html=1;strokeColor=#BAC8D3;fontColor=#182E3E;" vertex="1" parent="ecVGvUxfVP7xilmk1gJO-54">
          <mxGeometry x="30" width="150" height="30" as="geometry">
            <mxRectangle width="150" height="30" as="alternateBounds" />
          </mxGeometry>
        </mxCell>
        <mxCell id="ecVGvUxfVP7xilmk1gJO-57" value="" style="shape=tableRow;horizontal=0;startSize=0;swimlaneHead=0;swimlaneBody=0;fillColor=none;collapsible=0;dropTarget=0;points=[[0,0.5],[1,0.5]];portConstraint=eastwest;top=0;left=0;right=0;bottom=0;strokeColor=#BAC8D3;fontColor=#182E3E;" vertex="1" parent="ecVGvUxfVP7xilmk1gJO-47">
          <mxGeometry y="120" width="180" height="30" as="geometry" />
        </mxCell>
        <mxCell id="ecVGvUxfVP7xilmk1gJO-58" value="" style="shape=partialRectangle;connectable=0;fillColor=none;top=0;left=0;bottom=0;right=0;editable=1;overflow=hidden;whiteSpace=wrap;html=1;strokeColor=#BAC8D3;fontColor=#182E3E;" vertex="1" parent="ecVGvUxfVP7xilmk1gJO-57">
          <mxGeometry width="30" height="30" as="geometry">
            <mxRectangle width="30" height="30" as="alternateBounds" />
          </mxGeometry>
        </mxCell>
        <mxCell id="ecVGvUxfVP7xilmk1gJO-59" value="Primer_apellido" style="shape=partialRectangle;connectable=0;fillColor=none;top=0;left=0;bottom=0;right=0;align=left;spacingLeft=6;overflow=hidden;whiteSpace=wrap;html=1;strokeColor=#BAC8D3;fontColor=#182E3E;" vertex="1" parent="ecVGvUxfVP7xilmk1gJO-57">
          <mxGeometry x="30" width="150" height="30" as="geometry">
            <mxRectangle width="150" height="30" as="alternateBounds" />
          </mxGeometry>
        </mxCell>
        <mxCell id="ecVGvUxfVP7xilmk1gJO-64" value="" style="shape=tableRow;horizontal=0;startSize=0;swimlaneHead=0;swimlaneBody=0;fillColor=none;collapsible=0;dropTarget=0;points=[[0,0.5],[1,0.5]];portConstraint=eastwest;top=0;left=0;right=0;bottom=0;strokeColor=#BAC8D3;fontColor=#182E3E;" vertex="1" parent="ecVGvUxfVP7xilmk1gJO-47">
          <mxGeometry y="150" width="180" height="30" as="geometry" />
        </mxCell>
        <mxCell id="ecVGvUxfVP7xilmk1gJO-65" value="" style="shape=partialRectangle;connectable=0;fillColor=none;top=0;left=0;bottom=0;right=0;editable=1;overflow=hidden;whiteSpace=wrap;html=1;strokeColor=#BAC8D3;fontColor=#182E3E;" vertex="1" parent="ecVGvUxfVP7xilmk1gJO-64">
          <mxGeometry width="30" height="30" as="geometry">
            <mxRectangle width="30" height="30" as="alternateBounds" />
          </mxGeometry>
        </mxCell>
        <mxCell id="ecVGvUxfVP7xilmk1gJO-66" value="Segundo_apellido" style="shape=partialRectangle;connectable=0;fillColor=none;top=0;left=0;bottom=0;right=0;align=left;spacingLeft=6;overflow=hidden;whiteSpace=wrap;html=1;strokeColor=#BAC8D3;fontColor=#182E3E;" vertex="1" parent="ecVGvUxfVP7xilmk1gJO-64">
          <mxGeometry x="30" width="150" height="30" as="geometry">
            <mxRectangle width="150" height="30" as="alternateBounds" />
          </mxGeometry>
        </mxCell>
        <mxCell id="ecVGvUxfVP7xilmk1gJO-67" value="" style="shape=tableRow;horizontal=0;startSize=0;swimlaneHead=0;swimlaneBody=0;fillColor=none;collapsible=0;dropTarget=0;points=[[0,0.5],[1,0.5]];portConstraint=eastwest;top=0;left=0;right=0;bottom=0;strokeColor=#BAC8D3;fontColor=#182E3E;" vertex="1" parent="ecVGvUxfVP7xilmk1gJO-47">
          <mxGeometry y="180" width="180" height="30" as="geometry" />
        </mxCell>
        <mxCell id="ecVGvUxfVP7xilmk1gJO-68" value="" style="shape=partialRectangle;connectable=0;fillColor=none;top=0;left=0;bottom=0;right=0;editable=1;overflow=hidden;whiteSpace=wrap;html=1;strokeColor=#BAC8D3;fontColor=#182E3E;" vertex="1" parent="ecVGvUxfVP7xilmk1gJO-67">
          <mxGeometry width="30" height="30" as="geometry">
            <mxRectangle width="30" height="30" as="alternateBounds" />
          </mxGeometry>
        </mxCell>
        <mxCell id="ecVGvUxfVP7xilmk1gJO-69" value="Fecha_nacimiento" style="shape=partialRectangle;connectable=0;fillColor=none;top=0;left=0;bottom=0;right=0;align=left;spacingLeft=6;overflow=hidden;whiteSpace=wrap;html=1;strokeColor=#BAC8D3;fontColor=#182E3E;" vertex="1" parent="ecVGvUxfVP7xilmk1gJO-67">
          <mxGeometry x="30" width="150" height="30" as="geometry">
            <mxRectangle width="150" height="30" as="alternateBounds" />
          </mxGeometry>
        </mxCell>
        <mxCell id="ecVGvUxfVP7xilmk1gJO-73" value="" style="shape=tableRow;horizontal=0;startSize=0;swimlaneHead=0;swimlaneBody=0;fillColor=none;collapsible=0;dropTarget=0;points=[[0,0.5],[1,0.5]];portConstraint=eastwest;top=0;left=0;right=0;bottom=0;strokeColor=#BAC8D3;fontColor=#182E3E;" vertex="1" parent="ecVGvUxfVP7xilmk1gJO-47">
          <mxGeometry y="210" width="180" height="30" as="geometry" />
        </mxCell>
        <mxCell id="ecVGvUxfVP7xilmk1gJO-74" value="" style="shape=partialRectangle;connectable=0;fillColor=none;top=0;left=0;bottom=0;right=0;editable=1;overflow=hidden;whiteSpace=wrap;html=1;strokeColor=#BAC8D3;fontColor=#182E3E;" vertex="1" parent="ecVGvUxfVP7xilmk1gJO-73">
          <mxGeometry width="30" height="30" as="geometry">
            <mxRectangle width="30" height="30" as="alternateBounds" />
          </mxGeometry>
        </mxCell>
        <mxCell id="ecVGvUxfVP7xilmk1gJO-75" value="Teléfono" style="shape=partialRectangle;connectable=0;fillColor=none;top=0;left=0;bottom=0;right=0;align=left;spacingLeft=6;overflow=hidden;whiteSpace=wrap;html=1;strokeColor=#BAC8D3;fontColor=#182E3E;" vertex="1" parent="ecVGvUxfVP7xilmk1gJO-73">
          <mxGeometry x="30" width="150" height="30" as="geometry">
            <mxRectangle width="150" height="30" as="alternateBounds" />
          </mxGeometry>
        </mxCell>
        <mxCell id="ecVGvUxfVP7xilmk1gJO-76" value="" style="shape=tableRow;horizontal=0;startSize=0;swimlaneHead=0;swimlaneBody=0;fillColor=none;collapsible=0;dropTarget=0;points=[[0,0.5],[1,0.5]];portConstraint=eastwest;top=0;left=0;right=0;bottom=0;strokeColor=#BAC8D3;fontColor=#182E3E;" vertex="1" parent="ecVGvUxfVP7xilmk1gJO-47">
          <mxGeometry y="240" width="180" height="30" as="geometry" />
        </mxCell>
        <mxCell id="ecVGvUxfVP7xilmk1gJO-77" value="" style="shape=partialRectangle;connectable=0;fillColor=none;top=0;left=0;bottom=0;right=0;editable=1;overflow=hidden;whiteSpace=wrap;html=1;strokeColor=#BAC8D3;fontColor=#182E3E;" vertex="1" parent="ecVGvUxfVP7xilmk1gJO-76">
          <mxGeometry width="30" height="30" as="geometry">
            <mxRectangle width="30" height="30" as="alternateBounds" />
          </mxGeometry>
        </mxCell>
        <mxCell id="ecVGvUxfVP7xilmk1gJO-78" value="Correo" style="shape=partialRectangle;connectable=0;fillColor=none;top=0;left=0;bottom=0;right=0;align=left;spacingLeft=6;overflow=hidden;whiteSpace=wrap;html=1;strokeColor=#BAC8D3;fontColor=#182E3E;" vertex="1" parent="ecVGvUxfVP7xilmk1gJO-76">
          <mxGeometry x="30" width="150" height="30" as="geometry">
            <mxRectangle width="150" height="30" as="alternateBounds" />
          </mxGeometry>
        </mxCell>
        <mxCell id="ecVGvUxfVP7xilmk1gJO-70" value="" style="shape=tableRow;horizontal=0;startSize=0;swimlaneHead=0;swimlaneBody=0;fillColor=none;collapsible=0;dropTarget=0;points=[[0,0.5],[1,0.5]];portConstraint=eastwest;top=0;left=0;right=0;bottom=0;strokeColor=#BAC8D3;fontColor=#182E3E;" vertex="1" parent="ecVGvUxfVP7xilmk1gJO-47">
          <mxGeometry y="270" width="180" height="30" as="geometry" />
        </mxCell>
        <mxCell id="ecVGvUxfVP7xilmk1gJO-71" value="" style="shape=partialRectangle;connectable=0;fillColor=none;top=0;left=0;bottom=0;right=0;editable=1;overflow=hidden;whiteSpace=wrap;html=1;strokeColor=#BAC8D3;fontColor=#182E3E;" vertex="1" parent="ecVGvUxfVP7xilmk1gJO-70">
          <mxGeometry width="30" height="30" as="geometry">
            <mxRectangle width="30" height="30" as="alternateBounds" />
          </mxGeometry>
        </mxCell>
        <mxCell id="ecVGvUxfVP7xilmk1gJO-72" value="IDgénero" style="shape=partialRectangle;connectable=0;fillColor=none;top=0;left=0;bottom=0;right=0;align=left;spacingLeft=6;overflow=hidden;whiteSpace=wrap;html=1;strokeColor=#BAC8D3;fontColor=#182E3E;" vertex="1" parent="ecVGvUxfVP7xilmk1gJO-70">
          <mxGeometry x="30" width="150" height="30" as="geometry">
            <mxRectangle width="150" height="30" as="alternateBounds" />
          </mxGeometry>
        </mxCell>
        <mxCell id="ecVGvUxfVP7xilmk1gJO-79" value="" style="shape=tableRow;horizontal=0;startSize=0;swimlaneHead=0;swimlaneBody=0;fillColor=none;collapsible=0;dropTarget=0;points=[[0,0.5],[1,0.5]];portConstraint=eastwest;top=0;left=0;right=0;bottom=0;strokeColor=#BAC8D3;fontColor=#182E3E;" vertex="1" parent="ecVGvUxfVP7xilmk1gJO-47">
          <mxGeometry y="300" width="180" height="30" as="geometry" />
        </mxCell>
        <mxCell id="ecVGvUxfVP7xilmk1gJO-80" value="" style="shape=partialRectangle;connectable=0;fillColor=none;top=0;left=0;bottom=0;right=0;editable=1;overflow=hidden;whiteSpace=wrap;html=1;strokeColor=#BAC8D3;fontColor=#182E3E;" vertex="1" parent="ecVGvUxfVP7xilmk1gJO-79">
          <mxGeometry width="30" height="30" as="geometry">
            <mxRectangle width="30" height="30" as="alternateBounds" />
          </mxGeometry>
        </mxCell>
        <mxCell id="ecVGvUxfVP7xilmk1gJO-81" value="IDdirección" style="shape=partialRectangle;connectable=0;fillColor=none;top=0;left=0;bottom=0;right=0;align=left;spacingLeft=6;overflow=hidden;whiteSpace=wrap;html=1;strokeColor=#BAC8D3;fontColor=#182E3E;" vertex="1" parent="ecVGvUxfVP7xilmk1gJO-79">
          <mxGeometry x="30" width="150" height="30" as="geometry">
            <mxRectangle width="150" height="30" as="alternateBounds" />
          </mxGeometry>
        </mxCell>
        <mxCell id="ecVGvUxfVP7xilmk1gJO-82" value="" style="shape=tableRow;horizontal=0;startSize=0;swimlaneHead=0;swimlaneBody=0;fillColor=none;collapsible=0;dropTarget=0;points=[[0,0.5],[1,0.5]];portConstraint=eastwest;top=0;left=0;right=0;bottom=0;strokeColor=#BAC8D3;fontColor=#182E3E;" vertex="1" parent="ecVGvUxfVP7xilmk1gJO-47">
          <mxGeometry y="330" width="180" height="30" as="geometry" />
        </mxCell>
        <mxCell id="ecVGvUxfVP7xilmk1gJO-83" value="" style="shape=partialRectangle;connectable=0;fillColor=none;top=0;left=0;bottom=0;right=0;editable=1;overflow=hidden;whiteSpace=wrap;html=1;strokeColor=#BAC8D3;fontColor=#182E3E;" vertex="1" parent="ecVGvUxfVP7xilmk1gJO-82">
          <mxGeometry width="30" height="30" as="geometry">
            <mxRectangle width="30" height="30" as="alternateBounds" />
          </mxGeometry>
        </mxCell>
        <mxCell id="ecVGvUxfVP7xilmk1gJO-84" value="IDtipo_sangre" style="shape=partialRectangle;connectable=0;fillColor=none;top=0;left=0;bottom=0;right=0;align=left;spacingLeft=6;overflow=hidden;whiteSpace=wrap;html=1;strokeColor=#BAC8D3;fontColor=#182E3E;" vertex="1" parent="ecVGvUxfVP7xilmk1gJO-82">
          <mxGeometry x="30" width="150" height="30" as="geometry">
            <mxRectangle width="150" height="30" as="alternateBounds" />
          </mxGeometry>
        </mxCell>
        <mxCell id="ecVGvUxfVP7xilmk1gJO-63" value="" style="edgeStyle=entityRelationEdgeStyle;fontSize=12;html=1;endArrow=ERoneToMany;rounded=0;strokeColor=#001DBC;fontColor=#FFFFFF;entryX=1;entryY=0.5;entryDx=0;entryDy=0;exitX=0;exitY=0.5;exitDx=0;exitDy=0;fillColor=#0050ef;" edge="1" parent="1" source="ecVGvUxfVP7xilmk1gJO-48" target="ecVGvUxfVP7xilmk1gJO-27">
          <mxGeometry width="100" height="100" relative="1" as="geometry">
            <mxPoint x="560" y="450" as="sourcePoint" />
            <mxPoint x="660" y="350" as="targetPoint" />
          </mxGeometry>
        </mxCell>
        <mxCell id="ecVGvUxfVP7xilmk1gJO-85" value="TIPO_SANGRE" style="shape=table;startSize=30;container=1;collapsible=1;childLayout=tableLayout;fixedRows=1;rowLines=0;fontStyle=1;align=center;resizeLast=1;html=1;strokeColor=#BAC8D3;fontColor=#182E3E;fillColor=#B1DDF0;" vertex="1" parent="1">
          <mxGeometry x="660" y="800" width="180" height="90" as="geometry" />
        </mxCell>
        <mxCell id="ecVGvUxfVP7xilmk1gJO-86" value="" style="shape=tableRow;horizontal=0;startSize=0;swimlaneHead=0;swimlaneBody=0;fillColor=none;collapsible=0;dropTarget=0;points=[[0,0.5],[1,0.5]];portConstraint=eastwest;top=0;left=0;right=0;bottom=1;strokeColor=#BAC8D3;fontColor=#182E3E;" vertex="1" parent="ecVGvUxfVP7xilmk1gJO-85">
          <mxGeometry y="30" width="180" height="30" as="geometry" />
        </mxCell>
        <mxCell id="ecVGvUxfVP7xilmk1gJO-87" value="PK" style="shape=partialRectangle;connectable=0;fillColor=none;top=0;left=0;bottom=0;right=0;fontStyle=1;overflow=hidden;whiteSpace=wrap;html=1;strokeColor=#BAC8D3;fontColor=#182E3E;" vertex="1" parent="ecVGvUxfVP7xilmk1gJO-86">
          <mxGeometry width="30" height="30" as="geometry">
            <mxRectangle width="30" height="30" as="alternateBounds" />
          </mxGeometry>
        </mxCell>
        <mxCell id="ecVGvUxfVP7xilmk1gJO-88" value="IDtipo_sangre" style="shape=partialRectangle;connectable=0;fillColor=none;top=0;left=0;bottom=0;right=0;align=left;spacingLeft=6;fontStyle=5;overflow=hidden;whiteSpace=wrap;html=1;strokeColor=#BAC8D3;fontColor=#182E3E;" vertex="1" parent="ecVGvUxfVP7xilmk1gJO-86">
          <mxGeometry x="30" width="150" height="30" as="geometry">
            <mxRectangle width="150" height="30" as="alternateBounds" />
          </mxGeometry>
        </mxCell>
        <mxCell id="ecVGvUxfVP7xilmk1gJO-89" value="" style="shape=tableRow;horizontal=0;startSize=0;swimlaneHead=0;swimlaneBody=0;fillColor=none;collapsible=0;dropTarget=0;points=[[0,0.5],[1,0.5]];portConstraint=eastwest;top=0;left=0;right=0;bottom=0;strokeColor=#BAC8D3;fontColor=#182E3E;" vertex="1" parent="ecVGvUxfVP7xilmk1gJO-85">
          <mxGeometry y="60" width="180" height="30" as="geometry" />
        </mxCell>
        <mxCell id="ecVGvUxfVP7xilmk1gJO-90" value="" style="shape=partialRectangle;connectable=0;fillColor=none;top=0;left=0;bottom=0;right=0;editable=1;overflow=hidden;whiteSpace=wrap;html=1;strokeColor=#BAC8D3;fontColor=#182E3E;" vertex="1" parent="ecVGvUxfVP7xilmk1gJO-89">
          <mxGeometry width="30" height="30" as="geometry">
            <mxRectangle width="30" height="30" as="alternateBounds" />
          </mxGeometry>
        </mxCell>
        <mxCell id="ecVGvUxfVP7xilmk1gJO-91" value="Tipo_sangre" style="shape=partialRectangle;connectable=0;fillColor=none;top=0;left=0;bottom=0;right=0;align=left;spacingLeft=6;overflow=hidden;whiteSpace=wrap;html=1;strokeColor=#BAC8D3;fontColor=#182E3E;" vertex="1" parent="ecVGvUxfVP7xilmk1gJO-89">
          <mxGeometry x="30" width="150" height="30" as="geometry">
            <mxRectangle width="150" height="30" as="alternateBounds" />
          </mxGeometry>
        </mxCell>
        <mxCell id="ecVGvUxfVP7xilmk1gJO-98" value="" style="edgeStyle=entityRelationEdgeStyle;fontSize=12;html=1;endArrow=ERmandOne;startArrow=ERmandOne;rounded=0;strokeColor=#001DBC;fontColor=#FFFFFF;exitX=1;exitY=0.5;exitDx=0;exitDy=0;fillColor=#0050ef;" edge="1" parent="1" source="ecVGvUxfVP7xilmk1gJO-82" target="ecVGvUxfVP7xilmk1gJO-86">
          <mxGeometry width="100" height="100" relative="1" as="geometry">
            <mxPoint x="560" y="450" as="sourcePoint" />
            <mxPoint x="660" y="350" as="targetPoint" />
          </mxGeometry>
        </mxCell>
        <mxCell id="ecVGvUxfVP7xilmk1gJO-99" value="DIRECCIÓN" style="shape=table;startSize=30;container=1;collapsible=1;childLayout=tableLayout;fixedRows=1;rowLines=0;fontStyle=1;align=center;resizeLast=1;html=1;strokeColor=#BAC8D3;fontColor=#182E3E;fillColor=#B1DDF0;" vertex="1" parent="1">
          <mxGeometry x="660" y="630" width="180" height="150" as="geometry" />
        </mxCell>
        <mxCell id="ecVGvUxfVP7xilmk1gJO-100" value="" style="shape=tableRow;horizontal=0;startSize=0;swimlaneHead=0;swimlaneBody=0;fillColor=none;collapsible=0;dropTarget=0;points=[[0,0.5],[1,0.5]];portConstraint=eastwest;top=0;left=0;right=0;bottom=1;strokeColor=#BAC8D3;fontColor=#182E3E;" vertex="1" parent="ecVGvUxfVP7xilmk1gJO-99">
          <mxGeometry y="30" width="180" height="30" as="geometry" />
        </mxCell>
        <mxCell id="ecVGvUxfVP7xilmk1gJO-101" value="PK" style="shape=partialRectangle;connectable=0;fillColor=none;top=0;left=0;bottom=0;right=0;fontStyle=1;overflow=hidden;whiteSpace=wrap;html=1;strokeColor=#BAC8D3;fontColor=#182E3E;" vertex="1" parent="ecVGvUxfVP7xilmk1gJO-100">
          <mxGeometry width="30" height="30" as="geometry">
            <mxRectangle width="30" height="30" as="alternateBounds" />
          </mxGeometry>
        </mxCell>
        <mxCell id="ecVGvUxfVP7xilmk1gJO-102" value="IDdirección" style="shape=partialRectangle;connectable=0;fillColor=none;top=0;left=0;bottom=0;right=0;align=left;spacingLeft=6;fontStyle=5;overflow=hidden;whiteSpace=wrap;html=1;strokeColor=#BAC8D3;fontColor=#182E3E;" vertex="1" parent="ecVGvUxfVP7xilmk1gJO-100">
          <mxGeometry x="30" width="150" height="30" as="geometry">
            <mxRectangle width="150" height="30" as="alternateBounds" />
          </mxGeometry>
        </mxCell>
        <mxCell id="ecVGvUxfVP7xilmk1gJO-103" value="" style="shape=tableRow;horizontal=0;startSize=0;swimlaneHead=0;swimlaneBody=0;fillColor=none;collapsible=0;dropTarget=0;points=[[0,0.5],[1,0.5]];portConstraint=eastwest;top=0;left=0;right=0;bottom=0;strokeColor=#BAC8D3;fontColor=#182E3E;" vertex="1" parent="ecVGvUxfVP7xilmk1gJO-99">
          <mxGeometry y="60" width="180" height="30" as="geometry" />
        </mxCell>
        <mxCell id="ecVGvUxfVP7xilmk1gJO-104" value="" style="shape=partialRectangle;connectable=0;fillColor=none;top=0;left=0;bottom=0;right=0;editable=1;overflow=hidden;whiteSpace=wrap;html=1;strokeColor=#BAC8D3;fontColor=#182E3E;" vertex="1" parent="ecVGvUxfVP7xilmk1gJO-103">
          <mxGeometry width="30" height="30" as="geometry">
            <mxRectangle width="30" height="30" as="alternateBounds" />
          </mxGeometry>
        </mxCell>
        <mxCell id="ecVGvUxfVP7xilmk1gJO-105" value="Carrera" style="shape=partialRectangle;connectable=0;fillColor=none;top=0;left=0;bottom=0;right=0;align=left;spacingLeft=6;overflow=hidden;whiteSpace=wrap;html=1;strokeColor=#BAC8D3;fontColor=#182E3E;" vertex="1" parent="ecVGvUxfVP7xilmk1gJO-103">
          <mxGeometry x="30" width="150" height="30" as="geometry">
            <mxRectangle width="150" height="30" as="alternateBounds" />
          </mxGeometry>
        </mxCell>
        <mxCell id="ecVGvUxfVP7xilmk1gJO-106" value="" style="shape=tableRow;horizontal=0;startSize=0;swimlaneHead=0;swimlaneBody=0;fillColor=none;collapsible=0;dropTarget=0;points=[[0,0.5],[1,0.5]];portConstraint=eastwest;top=0;left=0;right=0;bottom=0;strokeColor=#BAC8D3;fontColor=#182E3E;" vertex="1" parent="ecVGvUxfVP7xilmk1gJO-99">
          <mxGeometry y="90" width="180" height="30" as="geometry" />
        </mxCell>
        <mxCell id="ecVGvUxfVP7xilmk1gJO-107" value="" style="shape=partialRectangle;connectable=0;fillColor=none;top=0;left=0;bottom=0;right=0;editable=1;overflow=hidden;whiteSpace=wrap;html=1;strokeColor=#BAC8D3;fontColor=#182E3E;" vertex="1" parent="ecVGvUxfVP7xilmk1gJO-106">
          <mxGeometry width="30" height="30" as="geometry">
            <mxRectangle width="30" height="30" as="alternateBounds" />
          </mxGeometry>
        </mxCell>
        <mxCell id="ecVGvUxfVP7xilmk1gJO-108" value="Número&lt;span style=&quot;white-space: pre;&quot;&gt;&#x9;&lt;/span&gt;&lt;span style=&quot;white-space: pre;&quot;&gt;&#x9;&lt;/span&gt;" style="shape=partialRectangle;connectable=0;fillColor=none;top=0;left=0;bottom=0;right=0;align=left;spacingLeft=6;overflow=hidden;whiteSpace=wrap;html=1;strokeColor=#BAC8D3;fontColor=#182E3E;" vertex="1" parent="ecVGvUxfVP7xilmk1gJO-106">
          <mxGeometry x="30" width="150" height="30" as="geometry">
            <mxRectangle width="150" height="30" as="alternateBounds" />
          </mxGeometry>
        </mxCell>
        <mxCell id="ecVGvUxfVP7xilmk1gJO-109" value="" style="shape=tableRow;horizontal=0;startSize=0;swimlaneHead=0;swimlaneBody=0;fillColor=none;collapsible=0;dropTarget=0;points=[[0,0.5],[1,0.5]];portConstraint=eastwest;top=0;left=0;right=0;bottom=0;strokeColor=#BAC8D3;fontColor=#182E3E;" vertex="1" parent="ecVGvUxfVP7xilmk1gJO-99">
          <mxGeometry y="120" width="180" height="30" as="geometry" />
        </mxCell>
        <mxCell id="ecVGvUxfVP7xilmk1gJO-110" value="" style="shape=partialRectangle;connectable=0;fillColor=none;top=0;left=0;bottom=0;right=0;editable=1;overflow=hidden;whiteSpace=wrap;html=1;strokeColor=#BAC8D3;fontColor=#182E3E;" vertex="1" parent="ecVGvUxfVP7xilmk1gJO-109">
          <mxGeometry width="30" height="30" as="geometry">
            <mxRectangle width="30" height="30" as="alternateBounds" />
          </mxGeometry>
        </mxCell>
        <mxCell id="ecVGvUxfVP7xilmk1gJO-111" value="Apartamento" style="shape=partialRectangle;connectable=0;fillColor=none;top=0;left=0;bottom=0;right=0;align=left;spacingLeft=6;overflow=hidden;whiteSpace=wrap;html=1;strokeColor=#BAC8D3;fontColor=#182E3E;" vertex="1" parent="ecVGvUxfVP7xilmk1gJO-109">
          <mxGeometry x="30" width="150" height="30" as="geometry">
            <mxRectangle width="150" height="30" as="alternateBounds" />
          </mxGeometry>
        </mxCell>
        <mxCell id="ecVGvUxfVP7xilmk1gJO-112" value="" style="edgeStyle=entityRelationEdgeStyle;fontSize=12;html=1;endArrow=ERmandOne;startArrow=ERmandOne;rounded=0;strokeColor=#001DBC;fontColor=#FFFFFF;exitX=1;exitY=0.5;exitDx=0;exitDy=0;fillColor=#0050ef;entryX=0;entryY=0.5;entryDx=0;entryDy=0;" edge="1" parent="1" source="ecVGvUxfVP7xilmk1gJO-79" target="ecVGvUxfVP7xilmk1gJO-100">
          <mxGeometry width="100" height="100" relative="1" as="geometry">
            <mxPoint x="970" y="720" as="sourcePoint" />
            <mxPoint x="1140" y="860" as="targetPoint" />
          </mxGeometry>
        </mxCell>
        <mxCell id="ecVGvUxfVP7xilmk1gJO-113" value="GÉNERO" style="shape=table;startSize=30;container=1;collapsible=1;childLayout=tableLayout;fixedRows=1;rowLines=0;fontStyle=1;align=center;resizeLast=1;html=1;strokeColor=#BAC8D3;fontColor=#182E3E;fillColor=#B1DDF0;" vertex="1" parent="1">
          <mxGeometry x="660" y="510" width="180" height="90" as="geometry" />
        </mxCell>
        <mxCell id="ecVGvUxfVP7xilmk1gJO-114" value="" style="shape=tableRow;horizontal=0;startSize=0;swimlaneHead=0;swimlaneBody=0;fillColor=none;collapsible=0;dropTarget=0;points=[[0,0.5],[1,0.5]];portConstraint=eastwest;top=0;left=0;right=0;bottom=1;strokeColor=#BAC8D3;fontColor=#182E3E;" vertex="1" parent="ecVGvUxfVP7xilmk1gJO-113">
          <mxGeometry y="30" width="180" height="30" as="geometry" />
        </mxCell>
        <mxCell id="ecVGvUxfVP7xilmk1gJO-115" value="PK" style="shape=partialRectangle;connectable=0;fillColor=none;top=0;left=0;bottom=0;right=0;fontStyle=1;overflow=hidden;whiteSpace=wrap;html=1;strokeColor=#BAC8D3;fontColor=#182E3E;" vertex="1" parent="ecVGvUxfVP7xilmk1gJO-114">
          <mxGeometry width="30" height="30" as="geometry">
            <mxRectangle width="30" height="30" as="alternateBounds" />
          </mxGeometry>
        </mxCell>
        <mxCell id="ecVGvUxfVP7xilmk1gJO-116" value="IDgénero" style="shape=partialRectangle;connectable=0;fillColor=none;top=0;left=0;bottom=0;right=0;align=left;spacingLeft=6;fontStyle=5;overflow=hidden;whiteSpace=wrap;html=1;strokeColor=#BAC8D3;fontColor=#182E3E;" vertex="1" parent="ecVGvUxfVP7xilmk1gJO-114">
          <mxGeometry x="30" width="150" height="30" as="geometry">
            <mxRectangle width="150" height="30" as="alternateBounds" />
          </mxGeometry>
        </mxCell>
        <mxCell id="ecVGvUxfVP7xilmk1gJO-117" value="" style="shape=tableRow;horizontal=0;startSize=0;swimlaneHead=0;swimlaneBody=0;fillColor=none;collapsible=0;dropTarget=0;points=[[0,0.5],[1,0.5]];portConstraint=eastwest;top=0;left=0;right=0;bottom=0;strokeColor=#BAC8D3;fontColor=#182E3E;" vertex="1" parent="ecVGvUxfVP7xilmk1gJO-113">
          <mxGeometry y="60" width="180" height="30" as="geometry" />
        </mxCell>
        <mxCell id="ecVGvUxfVP7xilmk1gJO-118" value="" style="shape=partialRectangle;connectable=0;fillColor=none;top=0;left=0;bottom=0;right=0;editable=1;overflow=hidden;whiteSpace=wrap;html=1;strokeColor=#BAC8D3;fontColor=#182E3E;" vertex="1" parent="ecVGvUxfVP7xilmk1gJO-117">
          <mxGeometry width="30" height="30" as="geometry">
            <mxRectangle width="30" height="30" as="alternateBounds" />
          </mxGeometry>
        </mxCell>
        <mxCell id="ecVGvUxfVP7xilmk1gJO-119" value="Género" style="shape=partialRectangle;connectable=0;fillColor=none;top=0;left=0;bottom=0;right=0;align=left;spacingLeft=6;overflow=hidden;whiteSpace=wrap;html=1;strokeColor=#BAC8D3;fontColor=#182E3E;" vertex="1" parent="ecVGvUxfVP7xilmk1gJO-117">
          <mxGeometry x="30" width="150" height="30" as="geometry">
            <mxRectangle width="150" height="30" as="alternateBounds" />
          </mxGeometry>
        </mxCell>
        <mxCell id="ecVGvUxfVP7xilmk1gJO-120" value="" style="edgeStyle=entityRelationEdgeStyle;fontSize=12;html=1;endArrow=ERmandOne;startArrow=ERmandOne;rounded=0;strokeColor=#001DBC;fontColor=#FFFFFF;exitX=1;exitY=0.5;exitDx=0;exitDy=0;fillColor=#0050ef;entryX=0;entryY=0.5;entryDx=0;entryDy=0;" edge="1" parent="1" source="ecVGvUxfVP7xilmk1gJO-70" target="ecVGvUxfVP7xilmk1gJO-114">
          <mxGeometry width="100" height="100" relative="1" as="geometry">
            <mxPoint x="960" y="660" as="sourcePoint" />
            <mxPoint x="1130" y="660" as="targetPoint" />
          </mxGeometry>
        </mxCell>
        <mxCell id="ecVGvUxfVP7xilmk1gJO-121" value="DIAGNÓSTICO" style="shape=table;startSize=30;container=1;collapsible=1;childLayout=tableLayout;fixedRows=1;rowLines=0;fontStyle=1;align=center;resizeLast=1;html=1;strokeColor=#BAC8D3;fontColor=#182E3E;fillColor=#B1DDF0;" vertex="1" parent="1">
          <mxGeometry x="40" y="440" width="180" height="150" as="geometry" />
        </mxCell>
        <mxCell id="ecVGvUxfVP7xilmk1gJO-122" value="" style="shape=tableRow;horizontal=0;startSize=0;swimlaneHead=0;swimlaneBody=0;fillColor=none;collapsible=0;dropTarget=0;points=[[0,0.5],[1,0.5]];portConstraint=eastwest;top=0;left=0;right=0;bottom=1;strokeColor=#BAC8D3;fontColor=#182E3E;" vertex="1" parent="ecVGvUxfVP7xilmk1gJO-121">
          <mxGeometry y="30" width="180" height="30" as="geometry" />
        </mxCell>
        <mxCell id="ecVGvUxfVP7xilmk1gJO-123" value="PK" style="shape=partialRectangle;connectable=0;fillColor=none;top=0;left=0;bottom=0;right=0;fontStyle=1;overflow=hidden;whiteSpace=wrap;html=1;strokeColor=#BAC8D3;fontColor=#182E3E;" vertex="1" parent="ecVGvUxfVP7xilmk1gJO-122">
          <mxGeometry width="30" height="30" as="geometry">
            <mxRectangle width="30" height="30" as="alternateBounds" />
          </mxGeometry>
        </mxCell>
        <mxCell id="ecVGvUxfVP7xilmk1gJO-124" value="IDdiagnóstico" style="shape=partialRectangle;connectable=0;fillColor=none;top=0;left=0;bottom=0;right=0;align=left;spacingLeft=6;fontStyle=5;overflow=hidden;whiteSpace=wrap;html=1;strokeColor=#BAC8D3;fontColor=#182E3E;" vertex="1" parent="ecVGvUxfVP7xilmk1gJO-122">
          <mxGeometry x="30" width="150" height="30" as="geometry">
            <mxRectangle width="150" height="30" as="alternateBounds" />
          </mxGeometry>
        </mxCell>
        <mxCell id="ecVGvUxfVP7xilmk1gJO-125" value="" style="shape=tableRow;horizontal=0;startSize=0;swimlaneHead=0;swimlaneBody=0;fillColor=none;collapsible=0;dropTarget=0;points=[[0,0.5],[1,0.5]];portConstraint=eastwest;top=0;left=0;right=0;bottom=0;strokeColor=#BAC8D3;fontColor=#182E3E;" vertex="1" parent="ecVGvUxfVP7xilmk1gJO-121">
          <mxGeometry y="60" width="180" height="30" as="geometry" />
        </mxCell>
        <mxCell id="ecVGvUxfVP7xilmk1gJO-126" value="" style="shape=partialRectangle;connectable=0;fillColor=none;top=0;left=0;bottom=0;right=0;editable=1;overflow=hidden;whiteSpace=wrap;html=1;strokeColor=#BAC8D3;fontColor=#182E3E;" vertex="1" parent="ecVGvUxfVP7xilmk1gJO-125">
          <mxGeometry width="30" height="30" as="geometry">
            <mxRectangle width="30" height="30" as="alternateBounds" />
          </mxGeometry>
        </mxCell>
        <mxCell id="ecVGvUxfVP7xilmk1gJO-127" value="Descripción" style="shape=partialRectangle;connectable=0;fillColor=none;top=0;left=0;bottom=0;right=0;align=left;spacingLeft=6;overflow=hidden;whiteSpace=wrap;html=1;strokeColor=#BAC8D3;fontColor=#182E3E;" vertex="1" parent="ecVGvUxfVP7xilmk1gJO-125">
          <mxGeometry x="30" width="150" height="30" as="geometry">
            <mxRectangle width="150" height="30" as="alternateBounds" />
          </mxGeometry>
        </mxCell>
        <mxCell id="ecVGvUxfVP7xilmk1gJO-128" value="" style="shape=tableRow;horizontal=0;startSize=0;swimlaneHead=0;swimlaneBody=0;fillColor=none;collapsible=0;dropTarget=0;points=[[0,0.5],[1,0.5]];portConstraint=eastwest;top=0;left=0;right=0;bottom=0;strokeColor=#BAC8D3;fontColor=#182E3E;" vertex="1" parent="ecVGvUxfVP7xilmk1gJO-121">
          <mxGeometry y="90" width="180" height="30" as="geometry" />
        </mxCell>
        <mxCell id="ecVGvUxfVP7xilmk1gJO-129" value="" style="shape=partialRectangle;connectable=0;fillColor=none;top=0;left=0;bottom=0;right=0;editable=1;overflow=hidden;whiteSpace=wrap;html=1;strokeColor=#BAC8D3;fontColor=#182E3E;" vertex="1" parent="ecVGvUxfVP7xilmk1gJO-128">
          <mxGeometry width="30" height="30" as="geometry">
            <mxRectangle width="30" height="30" as="alternateBounds" />
          </mxGeometry>
        </mxCell>
        <mxCell id="ecVGvUxfVP7xilmk1gJO-130" value="Indicaciones" style="shape=partialRectangle;connectable=0;fillColor=none;top=0;left=0;bottom=0;right=0;align=left;spacingLeft=6;overflow=hidden;whiteSpace=wrap;html=1;strokeColor=#BAC8D3;fontColor=#182E3E;" vertex="1" parent="ecVGvUxfVP7xilmk1gJO-128">
          <mxGeometry x="30" width="150" height="30" as="geometry">
            <mxRectangle width="150" height="30" as="alternateBounds" />
          </mxGeometry>
        </mxCell>
        <mxCell id="ecVGvUxfVP7xilmk1gJO-131" value="" style="shape=tableRow;horizontal=0;startSize=0;swimlaneHead=0;swimlaneBody=0;fillColor=none;collapsible=0;dropTarget=0;points=[[0,0.5],[1,0.5]];portConstraint=eastwest;top=0;left=0;right=0;bottom=0;strokeColor=#BAC8D3;fontColor=#182E3E;" vertex="1" parent="ecVGvUxfVP7xilmk1gJO-121">
          <mxGeometry y="120" width="180" height="30" as="geometry" />
        </mxCell>
        <mxCell id="ecVGvUxfVP7xilmk1gJO-132" value="" style="shape=partialRectangle;connectable=0;fillColor=none;top=0;left=0;bottom=0;right=0;editable=1;overflow=hidden;whiteSpace=wrap;html=1;strokeColor=#BAC8D3;fontColor=#182E3E;" vertex="1" parent="ecVGvUxfVP7xilmk1gJO-131">
          <mxGeometry width="30" height="30" as="geometry">
            <mxRectangle width="30" height="30" as="alternateBounds" />
          </mxGeometry>
        </mxCell>
        <mxCell id="ecVGvUxfVP7xilmk1gJO-133" value="Receta" style="shape=partialRectangle;connectable=0;fillColor=none;top=0;left=0;bottom=0;right=0;align=left;spacingLeft=6;overflow=hidden;whiteSpace=wrap;html=1;strokeColor=#BAC8D3;fontColor=#182E3E;" vertex="1" parent="ecVGvUxfVP7xilmk1gJO-131">
          <mxGeometry x="30" width="150" height="30" as="geometry">
            <mxRectangle width="150" height="30" as="alternateBounds" />
          </mxGeometry>
        </mxCell>
        <mxCell id="ecVGvUxfVP7xilmk1gJO-134" value="" style="edgeStyle=entityRelationEdgeStyle;fontSize=12;html=1;endArrow=ERmandOne;startArrow=ERmandOne;rounded=0;strokeColor=#001DBC;fontColor=#FFFFFF;fillColor=#0050ef;exitX=1;exitY=0.5;exitDx=0;exitDy=0;" edge="1" parent="1" source="ecVGvUxfVP7xilmk1gJO-122" target="ecVGvUxfVP7xilmk1gJO-24">
          <mxGeometry width="100" height="100" relative="1" as="geometry">
            <mxPoint x="210" y="410" as="sourcePoint" />
            <mxPoint x="270" y="200" as="targetPoint" />
            <Array as="points">
              <mxPoint x="270" y="410" />
            </Array>
          </mxGeometry>
        </mxCell>
        <mxCell id="ecVGvUxfVP7xilmk1gJO-135" value="MÉDICOS" style="shape=table;startSize=30;container=1;collapsible=1;childLayout=tableLayout;fixedRows=1;rowLines=0;fontStyle=1;align=center;resizeLast=1;html=1;strokeColor=#BAC8D3;fontColor=#182E3E;fillColor=#B1DDF0;" vertex="1" parent="1">
          <mxGeometry x="670" y="60" width="180" height="330" as="geometry" />
        </mxCell>
        <mxCell id="ecVGvUxfVP7xilmk1gJO-136" value="" style="shape=tableRow;horizontal=0;startSize=0;swimlaneHead=0;swimlaneBody=0;fillColor=none;collapsible=0;dropTarget=0;points=[[0,0.5],[1,0.5]];portConstraint=eastwest;top=0;left=0;right=0;bottom=1;strokeColor=#BAC8D3;fontColor=#182E3E;" vertex="1" parent="ecVGvUxfVP7xilmk1gJO-135">
          <mxGeometry y="30" width="180" height="30" as="geometry" />
        </mxCell>
        <mxCell id="ecVGvUxfVP7xilmk1gJO-137" value="PK" style="shape=partialRectangle;connectable=0;fillColor=none;top=0;left=0;bottom=0;right=0;fontStyle=1;overflow=hidden;whiteSpace=wrap;html=1;strokeColor=#BAC8D3;fontColor=#182E3E;" vertex="1" parent="ecVGvUxfVP7xilmk1gJO-136">
          <mxGeometry width="30" height="30" as="geometry">
            <mxRectangle width="30" height="30" as="alternateBounds" />
          </mxGeometry>
        </mxCell>
        <mxCell id="ecVGvUxfVP7xilmk1gJO-138" value="IDmédico" style="shape=partialRectangle;connectable=0;fillColor=none;top=0;left=0;bottom=0;right=0;align=left;spacingLeft=6;fontStyle=5;overflow=hidden;whiteSpace=wrap;html=1;strokeColor=#BAC8D3;fontColor=#182E3E;" vertex="1" parent="ecVGvUxfVP7xilmk1gJO-136">
          <mxGeometry x="30" width="150" height="30" as="geometry">
            <mxRectangle width="150" height="30" as="alternateBounds" />
          </mxGeometry>
        </mxCell>
        <mxCell id="ecVGvUxfVP7xilmk1gJO-139" value="" style="shape=tableRow;horizontal=0;startSize=0;swimlaneHead=0;swimlaneBody=0;fillColor=none;collapsible=0;dropTarget=0;points=[[0,0.5],[1,0.5]];portConstraint=eastwest;top=0;left=0;right=0;bottom=0;strokeColor=#BAC8D3;fontColor=#182E3E;" vertex="1" parent="ecVGvUxfVP7xilmk1gJO-135">
          <mxGeometry y="60" width="180" height="30" as="geometry" />
        </mxCell>
        <mxCell id="ecVGvUxfVP7xilmk1gJO-140" value="" style="shape=partialRectangle;connectable=0;fillColor=none;top=0;left=0;bottom=0;right=0;editable=1;overflow=hidden;whiteSpace=wrap;html=1;strokeColor=#BAC8D3;fontColor=#182E3E;" vertex="1" parent="ecVGvUxfVP7xilmk1gJO-139">
          <mxGeometry width="30" height="30" as="geometry">
            <mxRectangle width="30" height="30" as="alternateBounds" />
          </mxGeometry>
        </mxCell>
        <mxCell id="ecVGvUxfVP7xilmk1gJO-141" value="Primer_nombre" style="shape=partialRectangle;connectable=0;fillColor=none;top=0;left=0;bottom=0;right=0;align=left;spacingLeft=6;overflow=hidden;whiteSpace=wrap;html=1;strokeColor=#BAC8D3;fontColor=#182E3E;" vertex="1" parent="ecVGvUxfVP7xilmk1gJO-139">
          <mxGeometry x="30" width="150" height="30" as="geometry">
            <mxRectangle width="150" height="30" as="alternateBounds" />
          </mxGeometry>
        </mxCell>
        <mxCell id="ecVGvUxfVP7xilmk1gJO-142" value="" style="shape=tableRow;horizontal=0;startSize=0;swimlaneHead=0;swimlaneBody=0;fillColor=none;collapsible=0;dropTarget=0;points=[[0,0.5],[1,0.5]];portConstraint=eastwest;top=0;left=0;right=0;bottom=0;strokeColor=#BAC8D3;fontColor=#182E3E;" vertex="1" parent="ecVGvUxfVP7xilmk1gJO-135">
          <mxGeometry y="90" width="180" height="30" as="geometry" />
        </mxCell>
        <mxCell id="ecVGvUxfVP7xilmk1gJO-143" value="" style="shape=partialRectangle;connectable=0;fillColor=none;top=0;left=0;bottom=0;right=0;editable=1;overflow=hidden;whiteSpace=wrap;html=1;strokeColor=#BAC8D3;fontColor=#182E3E;" vertex="1" parent="ecVGvUxfVP7xilmk1gJO-142">
          <mxGeometry width="30" height="30" as="geometry">
            <mxRectangle width="30" height="30" as="alternateBounds" />
          </mxGeometry>
        </mxCell>
        <mxCell id="ecVGvUxfVP7xilmk1gJO-144" value="Segundo_nombre" style="shape=partialRectangle;connectable=0;fillColor=none;top=0;left=0;bottom=0;right=0;align=left;spacingLeft=6;overflow=hidden;whiteSpace=wrap;html=1;strokeColor=#BAC8D3;fontColor=#182E3E;" vertex="1" parent="ecVGvUxfVP7xilmk1gJO-142">
          <mxGeometry x="30" width="150" height="30" as="geometry">
            <mxRectangle width="150" height="30" as="alternateBounds" />
          </mxGeometry>
        </mxCell>
        <mxCell id="ecVGvUxfVP7xilmk1gJO-145" value="" style="shape=tableRow;horizontal=0;startSize=0;swimlaneHead=0;swimlaneBody=0;fillColor=none;collapsible=0;dropTarget=0;points=[[0,0.5],[1,0.5]];portConstraint=eastwest;top=0;left=0;right=0;bottom=0;strokeColor=#BAC8D3;fontColor=#182E3E;" vertex="1" parent="ecVGvUxfVP7xilmk1gJO-135">
          <mxGeometry y="120" width="180" height="30" as="geometry" />
        </mxCell>
        <mxCell id="ecVGvUxfVP7xilmk1gJO-146" value="" style="shape=partialRectangle;connectable=0;fillColor=none;top=0;left=0;bottom=0;right=0;editable=1;overflow=hidden;whiteSpace=wrap;html=1;strokeColor=#BAC8D3;fontColor=#182E3E;" vertex="1" parent="ecVGvUxfVP7xilmk1gJO-145">
          <mxGeometry width="30" height="30" as="geometry">
            <mxRectangle width="30" height="30" as="alternateBounds" />
          </mxGeometry>
        </mxCell>
        <mxCell id="ecVGvUxfVP7xilmk1gJO-147" value="Primer_apellido" style="shape=partialRectangle;connectable=0;fillColor=none;top=0;left=0;bottom=0;right=0;align=left;spacingLeft=6;overflow=hidden;whiteSpace=wrap;html=1;strokeColor=#BAC8D3;fontColor=#182E3E;" vertex="1" parent="ecVGvUxfVP7xilmk1gJO-145">
          <mxGeometry x="30" width="150" height="30" as="geometry">
            <mxRectangle width="150" height="30" as="alternateBounds" />
          </mxGeometry>
        </mxCell>
        <mxCell id="ecVGvUxfVP7xilmk1gJO-148" value="" style="shape=tableRow;horizontal=0;startSize=0;swimlaneHead=0;swimlaneBody=0;fillColor=none;collapsible=0;dropTarget=0;points=[[0,0.5],[1,0.5]];portConstraint=eastwest;top=0;left=0;right=0;bottom=0;strokeColor=#BAC8D3;fontColor=#182E3E;" vertex="1" parent="ecVGvUxfVP7xilmk1gJO-135">
          <mxGeometry y="150" width="180" height="30" as="geometry" />
        </mxCell>
        <mxCell id="ecVGvUxfVP7xilmk1gJO-149" value="" style="shape=partialRectangle;connectable=0;fillColor=none;top=0;left=0;bottom=0;right=0;editable=1;overflow=hidden;whiteSpace=wrap;html=1;strokeColor=#BAC8D3;fontColor=#182E3E;" vertex="1" parent="ecVGvUxfVP7xilmk1gJO-148">
          <mxGeometry width="30" height="30" as="geometry">
            <mxRectangle width="30" height="30" as="alternateBounds" />
          </mxGeometry>
        </mxCell>
        <mxCell id="ecVGvUxfVP7xilmk1gJO-150" value="Segundo_apellido" style="shape=partialRectangle;connectable=0;fillColor=none;top=0;left=0;bottom=0;right=0;align=left;spacingLeft=6;overflow=hidden;whiteSpace=wrap;html=1;strokeColor=#BAC8D3;fontColor=#182E3E;" vertex="1" parent="ecVGvUxfVP7xilmk1gJO-148">
          <mxGeometry x="30" width="150" height="30" as="geometry">
            <mxRectangle width="150" height="30" as="alternateBounds" />
          </mxGeometry>
        </mxCell>
        <mxCell id="ecVGvUxfVP7xilmk1gJO-151" value="" style="shape=tableRow;horizontal=0;startSize=0;swimlaneHead=0;swimlaneBody=0;fillColor=none;collapsible=0;dropTarget=0;points=[[0,0.5],[1,0.5]];portConstraint=eastwest;top=0;left=0;right=0;bottom=0;strokeColor=#BAC8D3;fontColor=#182E3E;" vertex="1" parent="ecVGvUxfVP7xilmk1gJO-135">
          <mxGeometry y="180" width="180" height="30" as="geometry" />
        </mxCell>
        <mxCell id="ecVGvUxfVP7xilmk1gJO-152" value="" style="shape=partialRectangle;connectable=0;fillColor=none;top=0;left=0;bottom=0;right=0;editable=1;overflow=hidden;whiteSpace=wrap;html=1;strokeColor=#BAC8D3;fontColor=#182E3E;" vertex="1" parent="ecVGvUxfVP7xilmk1gJO-151">
          <mxGeometry width="30" height="30" as="geometry">
            <mxRectangle width="30" height="30" as="alternateBounds" />
          </mxGeometry>
        </mxCell>
        <mxCell id="ecVGvUxfVP7xilmk1gJO-153" value="Especialidad" style="shape=partialRectangle;connectable=0;fillColor=none;top=0;left=0;bottom=0;right=0;align=left;spacingLeft=6;overflow=hidden;whiteSpace=wrap;html=1;strokeColor=#BAC8D3;fontColor=#182E3E;" vertex="1" parent="ecVGvUxfVP7xilmk1gJO-151">
          <mxGeometry x="30" width="150" height="30" as="geometry">
            <mxRectangle width="150" height="30" as="alternateBounds" />
          </mxGeometry>
        </mxCell>
        <mxCell id="ecVGvUxfVP7xilmk1gJO-154" value="" style="shape=tableRow;horizontal=0;startSize=0;swimlaneHead=0;swimlaneBody=0;fillColor=none;collapsible=0;dropTarget=0;points=[[0,0.5],[1,0.5]];portConstraint=eastwest;top=0;left=0;right=0;bottom=0;strokeColor=#BAC8D3;fontColor=#182E3E;" vertex="1" parent="ecVGvUxfVP7xilmk1gJO-135">
          <mxGeometry y="210" width="180" height="30" as="geometry" />
        </mxCell>
        <mxCell id="ecVGvUxfVP7xilmk1gJO-155" value="" style="shape=partialRectangle;connectable=0;fillColor=none;top=0;left=0;bottom=0;right=0;editable=1;overflow=hidden;whiteSpace=wrap;html=1;strokeColor=#BAC8D3;fontColor=#182E3E;" vertex="1" parent="ecVGvUxfVP7xilmk1gJO-154">
          <mxGeometry width="30" height="30" as="geometry">
            <mxRectangle width="30" height="30" as="alternateBounds" />
          </mxGeometry>
        </mxCell>
        <mxCell id="ecVGvUxfVP7xilmk1gJO-156" value="Teléfono" style="shape=partialRectangle;connectable=0;fillColor=none;top=0;left=0;bottom=0;right=0;align=left;spacingLeft=6;overflow=hidden;whiteSpace=wrap;html=1;strokeColor=#BAC8D3;fontColor=#182E3E;" vertex="1" parent="ecVGvUxfVP7xilmk1gJO-154">
          <mxGeometry x="30" width="150" height="30" as="geometry">
            <mxRectangle width="150" height="30" as="alternateBounds" />
          </mxGeometry>
        </mxCell>
        <mxCell id="ecVGvUxfVP7xilmk1gJO-157" value="" style="shape=tableRow;horizontal=0;startSize=0;swimlaneHead=0;swimlaneBody=0;fillColor=none;collapsible=0;dropTarget=0;points=[[0,0.5],[1,0.5]];portConstraint=eastwest;top=0;left=0;right=0;bottom=0;strokeColor=#BAC8D3;fontColor=#182E3E;" vertex="1" parent="ecVGvUxfVP7xilmk1gJO-135">
          <mxGeometry y="240" width="180" height="30" as="geometry" />
        </mxCell>
        <mxCell id="ecVGvUxfVP7xilmk1gJO-158" value="" style="shape=partialRectangle;connectable=0;fillColor=none;top=0;left=0;bottom=0;right=0;editable=1;overflow=hidden;whiteSpace=wrap;html=1;strokeColor=#BAC8D3;fontColor=#182E3E;" vertex="1" parent="ecVGvUxfVP7xilmk1gJO-157">
          <mxGeometry width="30" height="30" as="geometry">
            <mxRectangle width="30" height="30" as="alternateBounds" />
          </mxGeometry>
        </mxCell>
        <mxCell id="ecVGvUxfVP7xilmk1gJO-159" value="Correo" style="shape=partialRectangle;connectable=0;fillColor=none;top=0;left=0;bottom=0;right=0;align=left;spacingLeft=6;overflow=hidden;whiteSpace=wrap;html=1;strokeColor=#BAC8D3;fontColor=#182E3E;" vertex="1" parent="ecVGvUxfVP7xilmk1gJO-157">
          <mxGeometry x="30" width="150" height="30" as="geometry">
            <mxRectangle width="150" height="30" as="alternateBounds" />
          </mxGeometry>
        </mxCell>
        <mxCell id="ecVGvUxfVP7xilmk1gJO-160" value="" style="shape=tableRow;horizontal=0;startSize=0;swimlaneHead=0;swimlaneBody=0;fillColor=none;collapsible=0;dropTarget=0;points=[[0,0.5],[1,0.5]];portConstraint=eastwest;top=0;left=0;right=0;bottom=0;strokeColor=#BAC8D3;fontColor=#182E3E;" vertex="1" parent="ecVGvUxfVP7xilmk1gJO-135">
          <mxGeometry y="270" width="180" height="30" as="geometry" />
        </mxCell>
        <mxCell id="ecVGvUxfVP7xilmk1gJO-161" value="" style="shape=partialRectangle;connectable=0;fillColor=none;top=0;left=0;bottom=0;right=0;editable=1;overflow=hidden;whiteSpace=wrap;html=1;strokeColor=#BAC8D3;fontColor=#182E3E;" vertex="1" parent="ecVGvUxfVP7xilmk1gJO-160">
          <mxGeometry width="30" height="30" as="geometry">
            <mxRectangle width="30" height="30" as="alternateBounds" />
          </mxGeometry>
        </mxCell>
        <mxCell id="ecVGvUxfVP7xilmk1gJO-162" value="Experiencia" style="shape=partialRectangle;connectable=0;fillColor=none;top=0;left=0;bottom=0;right=0;align=left;spacingLeft=6;overflow=hidden;whiteSpace=wrap;html=1;strokeColor=#BAC8D3;fontColor=#182E3E;" vertex="1" parent="ecVGvUxfVP7xilmk1gJO-160">
          <mxGeometry x="30" width="150" height="30" as="geometry">
            <mxRectangle width="150" height="30" as="alternateBounds" />
          </mxGeometry>
        </mxCell>
        <mxCell id="ecVGvUxfVP7xilmk1gJO-163" value="" style="shape=tableRow;horizontal=0;startSize=0;swimlaneHead=0;swimlaneBody=0;fillColor=none;collapsible=0;dropTarget=0;points=[[0,0.5],[1,0.5]];portConstraint=eastwest;top=0;left=0;right=0;bottom=0;strokeColor=#BAC8D3;fontColor=#182E3E;" vertex="1" parent="ecVGvUxfVP7xilmk1gJO-135">
          <mxGeometry y="300" width="180" height="30" as="geometry" />
        </mxCell>
        <mxCell id="ecVGvUxfVP7xilmk1gJO-164" value="" style="shape=partialRectangle;connectable=0;fillColor=none;top=0;left=0;bottom=0;right=0;editable=1;overflow=hidden;whiteSpace=wrap;html=1;strokeColor=#BAC8D3;fontColor=#182E3E;" vertex="1" parent="ecVGvUxfVP7xilmk1gJO-163">
          <mxGeometry width="30" height="30" as="geometry">
            <mxRectangle width="30" height="30" as="alternateBounds" />
          </mxGeometry>
        </mxCell>
        <mxCell id="ecVGvUxfVP7xilmk1gJO-165" value="Salario" style="shape=partialRectangle;connectable=0;fillColor=none;top=0;left=0;bottom=0;right=0;align=left;spacingLeft=6;overflow=hidden;whiteSpace=wrap;html=1;strokeColor=#BAC8D3;fontColor=#182E3E;" vertex="1" parent="ecVGvUxfVP7xilmk1gJO-163">
          <mxGeometry x="30" width="150" height="30" as="geometry">
            <mxRectangle width="150" height="30" as="alternateBounds" />
          </mxGeometry>
        </mxCell>
        <mxCell id="ecVGvUxfVP7xilmk1gJO-169" value="" style="edgeStyle=entityRelationEdgeStyle;fontSize=12;html=1;endArrow=ERoneToMany;rounded=0;strokeColor=#001DBC;fontColor=#FFFFFF;fillColor=#0050ef;entryX=1;entryY=0.5;entryDx=0;entryDy=0;" edge="1" parent="1" source="ecVGvUxfVP7xilmk1gJO-136" target="ecVGvUxfVP7xilmk1gJO-21">
          <mxGeometry width="100" height="100" relative="1" as="geometry">
            <mxPoint x="550" y="310" as="sourcePoint" />
            <mxPoint x="470" y="200" as="targetPoint" />
          </mxGeometry>
        </mxCell>
        <mxCell id="ecVGvUxfVP7xilmk1gJO-170" value="Entrenamiento - Módulo 4 Semana 1&lt;div&gt;Modelo Relacional&lt;/div&gt;" style="text;html=1;align=right;verticalAlign=middle;resizable=0;points=[];autosize=1;strokeColor=none;fillColor=none;fontColor=light-dark(#182E3E,#FFFFFF);fontStyle=1;fontSize=18;" vertex="1" parent="1">
          <mxGeometry x="840" y="10" width="320" height="60" as="geometry" />
        </mxCell>
      </root>
    </mxGraphModel>
  </diagram>
</mxfile>
